<?xml version="1.0" standalone="no"?>
<!DOCTYPE svg PUBLIC "-//W3C//DTD SVG 20010904//EN" "http://www.w3.org/TR/2001/REC-SVG-20010904/DTD/svg10.dtd">
<svg version="1.0" xmlns="http://www.w3.org/2000/svg" width="348.000000pt" height="349.000000pt" viewBox="0 0 348.000000 349.000000" preserveAspectRatio="xMidYMid meet">

  <g transform="translate(0.000000,349.000000) scale(0.100000,-0.100000)" fill="#000000" stroke="none">
    <path d="M2255 2254 c-66 -7 -125 -13 -131 -13 -17 -1 -90 -111 -129 -193 -55
-116 -76 -199 -82 -332 -13 -262 70 -477 252 -660 125 -126 259 -202 426 -240
l56 -14 15 89 c11 69 12 89 2 89 -24 0 -190 91 -227 124 l-37 34 -5 124 c-7
162 -11 189 -42 278 -40 115 -44 266 -10 391 31 115 41 196 24 202 -15 5 20
46 86 98 l49 39 -64 -1 c-34 -1 -117 -7 -183 -15z" />
  </g>
</svg>
